<svg xmlns="http://www.w3.org/2000/svg" viewBox="0 0 900 270" width="100%" height="100%">
<defs>
  <linearGradient id="bg" x1="0%" y1="0%" x2="100%" y2="100%">
    <stop offset="0%" stop-color="#080C14"/><stop offset="50%" stop-color="#0F172A"/><stop offset="100%" stop-color="#05080F"/>
  </linearGradient>
  <linearGradient id="brd" x1="0%" y1="0%" x2="100%" y2="0%">
    <stop offset="0%" stop-color="#3FB950" stop-opacity="0.9"/><stop offset="50%" stop-color="#58A6FF" stop-opacity="0.9"/>
    <stop offset="100%" stop-color="#A371F7" stop-opacity="0.9"/>
  </linearGradient>
  <linearGradient id="tg" x1="0%" y1="0%" x2="100%" y2="0%">
    <stop offset="0%" stop-color="#3FB950"><animate attributeName="stop-color" values="#3FB950;#58A6FF;#A371F7;#3FB950" dur="6s" repeatCount="indefinite"/></stop>
    <stop offset="50%" stop-color="#58A6FF"><animate attributeName="stop-color" values="#58A6FF;#A371F7;#3FB950;#58A6FF" dur="6s" repeatCount="indefinite"/></stop>
    <stop offset="100%" stop-color="#A371F7"><animate attributeName="stop-color" values="#A371F7;#3FB950;#58A6FF;#A371F7" dur="6s" repeatCount="indefinite"/></stop>
  </linearGradient>
  <linearGradient id="steel" x1="0%" y1="0%" x2="0%" y2="100%">
    <stop offset="0%" stop-color="#2B3440"/><stop offset="45%" stop-color="#3A4553"/><stop offset="100%" stop-color="#1C232C"/>
  </linearGradient>
  <linearGradient id="armg" x1="0%" y1="0%" x2="100%" y2="0%">
    <stop offset="0%" stop-color="#1B2530"/><stop offset="38%" stop-color="#37424F"/><stop offset="100%" stop-color="#131A22"/>
  </linearGradient>
  <pattern id="grid" width="30" height="30" patternUnits="userSpaceOnUse">
    <path d="M 30 0 L 0 0 0 30" fill="none" stroke="#1E293B" stroke-width="0.8" opacity="0.5"/>
  </pattern>
  <filter id="glow" x="-20%" y="-20%" width="140%" height="140%">
    <feGaussianBlur stdDeviation="3" result="b"/><feMerge><feMergeNode in="b"/><feMergeNode in="SourceGraphic"/></feMerge>
  </filter>
  <clipPath id="frame"><rect x="6" y="6" width="888" height="258" rx="15"/></clipPath>
  <style>
    text{font-family:system-ui,-apple-system,'Segoe UI',Roboto,sans-serif;user-select:none}
    .mono{font-family:ui-monospace,SFMono-Regular,Menlo,Monaco,Consolas,monospace}
  </style>
</defs>
<rect x="5" y="5" width="890" height="260" rx="16" fill="url(#bg)" stroke="url(#brd)" stroke-width="1.5"/>
<rect x="6" y="6" width="888" height="258" rx="15" fill="url(#grid)"/>
<path d="M 6 6 L 894 6 L 894 36 L 6 36 Z" fill="#0B1324" opacity="0.9"/>
<circle cx="24" cy="21" r="5" fill="#FF5F56"/><circle cx="40" cy="21" r="5" fill="#FFBD2E"/><circle cx="56" cy="21" r="5" fill="#27C93F"/><g clip-path="url(#frame)"><line x1="16" y1="262" x2="884" y2="262" stroke="#30363D" stroke-width="1.2" opacity="0.6"/><g><rect x="24" y="238" width="676" height="13" rx="2" fill="url(#steel)" stroke="#30363D" stroke-width="0.9"/><rect x="64" y="251" width="5" height="11" fill="#21262D"/><rect x="59" y="261" width="15" height="3" rx="1.5" fill="#30363D"/><rect x="214" y="251" width="5" height="11" fill="#21262D"/><rect x="209" y="261" width="15" height="3" rx="1.5" fill="#30363D"/><rect x="364" y="251" width="5" height="11" fill="#21262D"/><rect x="359" y="261" width="15" height="3" rx="1.5" fill="#30363D"/><rect x="514" y="251" width="5" height="11" fill="#21262D"/><rect x="509" y="261" width="15" height="3" rx="1.5" fill="#30363D"/><rect x="664" y="251" width="5" height="11" fill="#21262D"/><rect x="659" y="261" width="15" height="3" rx="1.5" fill="#30363D"/><rect x="24" y="236" width="676" height="4" rx="2" fill="#0B0E14"/><line x1="24" y1="238" x2="700" y2="238" stroke="#7D8590" stroke-width="2.6" stroke-dasharray="10,8" opacity="0.85"><animate attributeName="stroke-dashoffset" values="18;0" dur="0.55s" repeatCount="indefinite"/></line><g transform="translate(36,244.5)"><animateTransform attributeName="transform" type="rotate" from="0" to="360" dur="0.9s" repeatCount="indefinite" additive="sum"/><circle r="4.6" fill="#0B0E14" stroke="#7D8590" stroke-width="0.9"/><path d="M-3.2,0 H3.2 M0,-3.2 V3.2" stroke="#7D8590" stroke-width="0.8" opacity="0.8"/></g><g transform="translate(80,244.5)"><animateTransform attributeName="transform" type="rotate" from="0" to="360" dur="0.9s" repeatCount="indefinite" additive="sum"/><circle r="4.6" fill="#0B0E14" stroke="#7D8590" stroke-width="0.9"/><path d="M-3.2,0 H3.2 M0,-3.2 V3.2" stroke="#7D8590" stroke-width="0.8" opacity="0.8"/></g><g transform="translate(124,244.5)"><animateTransform attributeName="transform" type="rotate" from="0" to="360" dur="0.9s" repeatCount="indefinite" additive="sum"/><circle r="4.6" fill="#0B0E14" stroke="#7D8590" stroke-width="0.9"/><path d="M-3.2,0 H3.2 M0,-3.2 V3.2" stroke="#7D8590" stroke-width="0.8" opacity="0.8"/></g><g transform="translate(168,244.5)"><animateTransform attributeName="transform" type="rotate" from="0" to="360" dur="0.9s" repeatCount="indefinite" additive="sum"/><circle r="4.6" fill="#0B0E14" stroke="#7D8590" stroke-width="0.9"/><path d="M-3.2,0 H3.2 M0,-3.2 V3.2" stroke="#7D8590" stroke-width="0.8" opacity="0.8"/></g><g transform="translate(212,244.5)"><animateTransform attributeName="transform" type="rotate" from="0" to="360" dur="0.9s" repeatCount="indefinite" additive="sum"/><circle r="4.6" fill="#0B0E14" stroke="#7D8590" stroke-width="0.9"/><path d="M-3.2,0 H3.2 M0,-3.2 V3.2" stroke="#7D8590" stroke-width="0.8" opacity="0.8"/></g><g transform="translate(256,244.5)"><animateTransform attributeName="transform" type="rotate" from="0" to="360" dur="0.9s" repeatCount="indefinite" additive="sum"/><circle r="4.6" fill="#0B0E14" stroke="#7D8590" stroke-width="0.9"/><path d="M-3.2,0 H3.2 M0,-3.2 V3.2" stroke="#7D8590" stroke-width="0.8" opacity="0.8"/></g><g transform="translate(300,244.5)"><animateTransform attributeName="transform" type="rotate" from="0" to="360" dur="0.9s" repeatCount="indefinite" additive="sum"/><circle r="4.6" fill="#0B0E14" stroke="#7D8590" stroke-width="0.9"/><path d="M-3.2,0 H3.2 M0,-3.2 V3.2" stroke="#7D8590" stroke-width="0.8" opacity="0.8"/></g><g transform="translate(344,244.5)"><animateTransform attributeName="transform" type="rotate" from="0" to="360" dur="0.9s" repeatCount="indefinite" additive="sum"/><circle r="4.6" fill="#0B0E14" stroke="#7D8590" stroke-width="0.9"/><path d="M-3.2,0 H3.2 M0,-3.2 V3.2" stroke="#7D8590" stroke-width="0.8" opacity="0.8"/></g><g transform="translate(388,244.5)"><animateTransform attributeName="transform" type="rotate" from="0" to="360" dur="0.9s" repeatCount="indefinite" additive="sum"/><circle r="4.6" fill="#0B0E14" stroke="#7D8590" stroke-width="0.9"/><path d="M-3.2,0 H3.2 M0,-3.2 V3.2" stroke="#7D8590" stroke-width="0.8" opacity="0.8"/></g><g transform="translate(432,244.5)"><animateTransform attributeName="transform" type="rotate" from="0" to="360" dur="0.9s" repeatCount="indefinite" additive="sum"/><circle r="4.6" fill="#0B0E14" stroke="#7D8590" stroke-width="0.9"/><path d="M-3.2,0 H3.2 M0,-3.2 V3.2" stroke="#7D8590" stroke-width="0.8" opacity="0.8"/></g><g transform="translate(476,244.5)"><animateTransform attributeName="transform" type="rotate" from="0" to="360" dur="0.9s" repeatCount="indefinite" additive="sum"/><circle r="4.6" fill="#0B0E14" stroke="#7D8590" stroke-width="0.9"/><path d="M-3.2,0 H3.2 M0,-3.2 V3.2" stroke="#7D8590" stroke-width="0.8" opacity="0.8"/></g><g transform="translate(520,244.5)"><animateTransform attributeName="transform" type="rotate" from="0" to="360" dur="0.9s" repeatCount="indefinite" additive="sum"/><circle r="4.6" fill="#0B0E14" stroke="#7D8590" stroke-width="0.9"/><path d="M-3.2,0 H3.2 M0,-3.2 V3.2" stroke="#7D8590" stroke-width="0.8" opacity="0.8"/></g><g transform="translate(564,244.5)"><animateTransform attributeName="transform" type="rotate" from="0" to="360" dur="0.9s" repeatCount="indefinite" additive="sum"/><circle r="4.6" fill="#0B0E14" stroke="#7D8590" stroke-width="0.9"/><path d="M-3.2,0 H3.2 M0,-3.2 V3.2" stroke="#7D8590" stroke-width="0.8" opacity="0.8"/></g><g transform="translate(608,244.5)"><animateTransform attributeName="transform" type="rotate" from="0" to="360" dur="0.9s" repeatCount="indefinite" additive="sum"/><circle r="4.6" fill="#0B0E14" stroke="#7D8590" stroke-width="0.9"/><path d="M-3.2,0 H3.2 M0,-3.2 V3.2" stroke="#7D8590" stroke-width="0.8" opacity="0.8"/></g><g transform="translate(652,244.5)"><animateTransform attributeName="transform" type="rotate" from="0" to="360" dur="0.9s" repeatCount="indefinite" additive="sum"/><circle r="4.6" fill="#0B0E14" stroke="#7D8590" stroke-width="0.9"/><path d="M-3.2,0 H3.2 M0,-3.2 V3.2" stroke="#7D8590" stroke-width="0.8" opacity="0.8"/></g><g transform="translate(696,244.5)"><animateTransform attributeName="transform" type="rotate" from="0" to="360" dur="0.9s" repeatCount="indefinite" additive="sum"/><circle r="4.6" fill="#0B0E14" stroke="#7D8590" stroke-width="0.9"/><path d="M-3.2,0 H3.2 M0,-3.2 V3.2" stroke="#7D8590" stroke-width="0.8" opacity="0.8"/></g><path d="M32,216 v-9 M27,210 l5,6 l5,-6" fill="none" stroke="#3FB950" stroke-width="1.3" opacity="0.55"><animate attributeName="opacity" values="0.2;0.85;0.2" dur="4.6s" repeatCount="indefinite"/></path><g><animateTransform attributeName="transform" type="translate" values="34,227.0;690,227.0" dur="27.599999999999998s" begin="0.749s" calcMode="linear" repeatCount="indefinite"/><g><rect x="-13.0" y="-10.0" width="26" height="20" rx="2.5" fill="#10243a" stroke="#58A6FF" stroke-width="1.3"/><path d="M-13.0,-3.1999999999999993 h26" stroke="#58A6FF" stroke-width="0.8" opacity="0.55"/><path d="M0.0,-10.0 v20" stroke="#58A6FF" stroke-width="0.7" opacity="0.3"/><rect x="-9.5" y="-7.0" width="8.84" height="2.4" rx="1.2" fill="#58A6FF" opacity="0.7"/><path d="M-13.0,10.0 l2.5,-2.5 h21 l2.5,2.5" fill="#000" opacity="0.25"/></g></g><g><animateTransform attributeName="transform" type="translate" values="34,227.0;690,227.0" dur="27.599999999999998s" begin="-3.851s" calcMode="linear" repeatCount="indefinite"/><g><rect x="-13.0" y="-10.0" width="26" height="20" rx="2.5" fill="#10243a" stroke="#58A6FF" stroke-width="1.3"/><path d="M-13.0,-3.1999999999999993 h26" stroke="#58A6FF" stroke-width="0.8" opacity="0.55"/><path d="M0.0,-10.0 v20" stroke="#58A6FF" stroke-width="0.7" opacity="0.3"/><rect x="-9.5" y="-7.0" width="8.84" height="2.4" rx="1.2" fill="#58A6FF" opacity="0.7"/><path d="M-13.0,10.0 l2.5,-2.5 h21 l2.5,2.5" fill="#000" opacity="0.25"/></g></g><g><animateTransform attributeName="transform" type="translate" values="34,227.0;690,227.0" dur="27.599999999999998s" begin="-8.451s" calcMode="linear" repeatCount="indefinite"/><g><rect x="-13.0" y="-10.0" width="26" height="20" rx="2.5" fill="#10243a" stroke="#58A6FF" stroke-width="1.3"/><path d="M-13.0,-3.1999999999999993 h26" stroke="#58A6FF" stroke-width="0.8" opacity="0.55"/><path d="M0.0,-10.0 v20" stroke="#58A6FF" stroke-width="0.7" opacity="0.3"/><rect x="-9.5" y="-7.0" width="8.84" height="2.4" rx="1.2" fill="#58A6FF" opacity="0.7"/><path d="M-13.0,10.0 l2.5,-2.5 h21 l2.5,2.5" fill="#000" opacity="0.25"/></g></g><g><animateTransform attributeName="transform" type="translate" values="34,227.0;690,227.0" dur="27.599999999999998s" begin="-13.051s" calcMode="linear" repeatCount="indefinite"/><g><rect x="-13.0" y="-10.0" width="26" height="20" rx="2.5" fill="#10243a" stroke="#58A6FF" stroke-width="1.3"/><path d="M-13.0,-3.1999999999999993 h26" stroke="#58A6FF" stroke-width="0.8" opacity="0.55"/><path d="M0.0,-10.0 v20" stroke="#58A6FF" stroke-width="0.7" opacity="0.3"/><rect x="-9.5" y="-7.0" width="8.84" height="2.4" rx="1.2" fill="#58A6FF" opacity="0.7"/><path d="M-13.0,10.0 l2.5,-2.5 h21 l2.5,2.5" fill="#000" opacity="0.25"/></g></g><g><animateTransform attributeName="transform" type="translate" values="34,227.0;690,227.0" dur="27.599999999999998s" begin="-17.651s" calcMode="linear" repeatCount="indefinite"/><g><rect x="-13.0" y="-10.0" width="26" height="20" rx="2.5" fill="#10243a" stroke="#58A6FF" stroke-width="1.3"/><path d="M-13.0,-3.1999999999999993 h26" stroke="#58A6FF" stroke-width="0.8" opacity="0.55"/><path d="M0.0,-10.0 v20" stroke="#58A6FF" stroke-width="0.7" opacity="0.3"/><rect x="-9.5" y="-7.0" width="8.84" height="2.4" rx="1.2" fill="#58A6FF" opacity="0.7"/><path d="M-13.0,10.0 l2.5,-2.5 h21 l2.5,2.5" fill="#000" opacity="0.25"/></g></g><g><animateTransform attributeName="transform" type="translate" values="34,227.0;690,227.0" dur="27.599999999999998s" begin="-22.251s" calcMode="linear" repeatCount="indefinite"/><g><rect x="-13.0" y="-10.0" width="26" height="20" rx="2.5" fill="#10243a" stroke="#58A6FF" stroke-width="1.3"/><path d="M-13.0,-3.1999999999999993 h26" stroke="#58A6FF" stroke-width="0.8" opacity="0.55"/><path d="M0.0,-10.0 v20" stroke="#58A6FF" stroke-width="0.7" opacity="0.3"/><rect x="-9.5" y="-7.0" width="8.84" height="2.4" rx="1.2" fill="#58A6FF" opacity="0.7"/><path d="M-13.0,10.0 l2.5,-2.5 h21 l2.5,2.5" fill="#000" opacity="0.25"/></g></g><g><rect x="626" y="184" width="4" height="52" rx="2" fill="#21262D"/><rect x="626" y="180" width="46" height="7" rx="3" fill="#21262D" stroke="#30363D" stroke-width="0.7"/><rect x="626" y="188" width="44" height="46" fill="#D29922" opacity="0"><animate attributeName="opacity" values="0;0.16;0" keyTimes="0;0.06;0.18" dur="4.6s" repeatCount="indefinite"/></rect><circle cx="666" cy="184" r="2" fill="#D29922"><animate attributeName="opacity" values="1;0.2;1" dur="1.1s" repeatCount="indefinite"/></circle></g></g><g><rect x="822" y="114" width="6" height="120" rx="3" fill="url(#steel)" stroke="#30363D" stroke-width="0.8"/><rect x="878" y="114" width="6" height="120" rx="3" fill="url(#steel)" stroke="#30363D" stroke-width="0.8"/><line x1="828" y1="124" x2="878" y2="124" stroke="#30363D" stroke-width="0.7" opacity="0.45"/><line x1="828" y1="140" x2="878" y2="140" stroke="#30363D" stroke-width="0.7" opacity="0.45"/><line x1="828" y1="156" x2="878" y2="156" stroke="#30363D" stroke-width="0.7" opacity="0.45"/><line x1="828" y1="172" x2="878" y2="172" stroke="#30363D" stroke-width="0.7" opacity="0.45"/><line x1="828" y1="188" x2="878" y2="188" stroke="#30363D" stroke-width="0.7" opacity="0.45"/><line x1="828" y1="204" x2="878" y2="204" stroke="#30363D" stroke-width="0.7" opacity="0.45"/><line x1="828" y1="220" x2="878" y2="220" stroke="#30363D" stroke-width="0.7" opacity="0.45"/><line x1="819" y1="116" x2="819" y2="232" stroke="#D29922" stroke-width="1.6" stroke-dasharray="5,7" opacity="0.6"><animate attributeName="stroke-dashoffset" values="0;-24" dur="1.1s" repeatCount="indefinite"/></line><rect x="818" y="108" width="68" height="8" rx="3" fill="url(#steel)" stroke="#30363D" stroke-width="0.9"/><text x="810" y="115" class="mono" font-size="7" fill="#D29922" text-anchor="end" letter-spacing="1">OUTFEED</text><g><animateTransform attributeName="transform" type="translate" values="0,214;0,120" dur="13.799999999999999s" begin="0.000s" calcMode="linear" repeatCount="indefinite"/><rect x="826" y="-3" width="52" height="6" rx="2" fill="url(#steel)" stroke="#7D8590" stroke-width="0.8"/><path d="M826,3 l-4,5 M878,3 l4,5" stroke="#7D8590" stroke-width="1.2" opacity="0.6"/><g transform="translate(852,-13.0)" opacity="0"><animate attributeName="opacity" values="0;0;1;1;0;0" keyTimes="0;0.1915;0.1955;0.9043;0.9083;1" dur="13.799999999999999s" begin="0.000s" repeatCount="indefinite"/><g><rect x="-13.0" y="-10.0" width="26" height="20" rx="2.5" fill="#10243a" stroke="#58A6FF" stroke-width="1.3"/><path d="M-13.0,-3.1999999999999993 h26" stroke="#58A6FF" stroke-width="0.8" opacity="0.55"/><path d="M0.0,-10.0 v20" stroke="#58A6FF" stroke-width="0.7" opacity="0.3"/><rect x="-9.5" y="-7.0" width="8.84" height="2.4" rx="1.2" fill="#58A6FF" opacity="0.7"/><path d="M-13.0,10.0 l2.5,-2.5 h21 l2.5,2.5" fill="#000" opacity="0.25"/></g></g></g><g><animateTransform attributeName="transform" type="translate" values="0,214;0,120" dur="13.799999999999999s" begin="-4.600s" calcMode="linear" repeatCount="indefinite"/><rect x="826" y="-3" width="52" height="6" rx="2" fill="url(#steel)" stroke="#7D8590" stroke-width="0.8"/><path d="M826,3 l-4,5 M878,3 l4,5" stroke="#7D8590" stroke-width="1.2" opacity="0.6"/><g transform="translate(852,-13.0)" opacity="0"><animate attributeName="opacity" values="0;0;1;1;0;0" keyTimes="0;0.1915;0.1955;0.9043;0.9083;1" dur="13.799999999999999s" begin="-4.600s" repeatCount="indefinite"/><g><rect x="-13.0" y="-10.0" width="26" height="20" rx="2.5" fill="#10243a" stroke="#58A6FF" stroke-width="1.3"/><path d="M-13.0,-3.1999999999999993 h26" stroke="#58A6FF" stroke-width="0.8" opacity="0.55"/><path d="M0.0,-10.0 v20" stroke="#58A6FF" stroke-width="0.7" opacity="0.3"/><rect x="-9.5" y="-7.0" width="8.84" height="2.4" rx="1.2" fill="#58A6FF" opacity="0.7"/><path d="M-13.0,10.0 l2.5,-2.5 h21 l2.5,2.5" fill="#000" opacity="0.25"/></g></g></g><g><animateTransform attributeName="transform" type="translate" values="0,214;0,120" dur="13.799999999999999s" begin="-9.200s" calcMode="linear" repeatCount="indefinite"/><rect x="826" y="-3" width="52" height="6" rx="2" fill="url(#steel)" stroke="#7D8590" stroke-width="0.8"/><path d="M826,3 l-4,5 M878,3 l4,5" stroke="#7D8590" stroke-width="1.2" opacity="0.6"/><g transform="translate(852,-13.0)" opacity="0"><animate attributeName="opacity" values="0;0;1;1;0;0" keyTimes="0;0.1915;0.1955;0.9043;0.9083;1" dur="13.799999999999999s" begin="-9.200s" repeatCount="indefinite"/><g><rect x="-13.0" y="-10.0" width="26" height="20" rx="2.5" fill="#10243a" stroke="#58A6FF" stroke-width="1.3"/><path d="M-13.0,-3.1999999999999993 h26" stroke="#58A6FF" stroke-width="0.8" opacity="0.55"/><path d="M0.0,-10.0 v20" stroke="#58A6FF" stroke-width="0.7" opacity="0.3"/><rect x="-9.5" y="-7.0" width="8.84" height="2.4" rx="1.2" fill="#58A6FF" opacity="0.7"/><path d="M-13.0,10.0 l2.5,-2.5 h21 l2.5,2.5" fill="#000" opacity="0.25"/></g></g></g></g><g transform="translate(778,250)">
<path d="M-30,6 h60 l-9,-16 h-42 Z" fill="url(#steel)" stroke="#30363D" stroke-width="1"/>
<rect x="-34" y="6" width="68" height="6" rx="3" fill="#21262D" stroke="#30363D" stroke-width="0.8"/>
<circle cx="-26" cy="9" r="1.6" fill="#7D8590"/><circle cx="-13" cy="9" r="1.6" fill="#7D8590"/><circle cx="13" cy="9" r="1.6" fill="#7D8590"/><circle cx="26" cy="9" r="1.6" fill="#7D8590"/>
<rect x="-15" y="-16" width="30" height="18" rx="4" fill="url(#armg)" stroke="#7D8590" stroke-width="1"/>
<circle cx="10" cy="-10" r="2" fill="#3FB950"><animate attributeName="opacity" values="1;0.2;1" dur="1.3s" repeatCount="indefinite"/></circle>
<g>
  <animateTransform attributeName="transform" type="rotate" values="-8.40;-25.48;-20.21;36.76;70.36;33.17;23.65;-8.40" keyTimes="0;0.1628;0.26;0.42;0.5745;0.68;0.86;1" dur="4.6s" repeatCount="indefinite"/>
  <rect x="-7.5" y="-74.0" width="15" height="80.0" rx="7" fill="url(#armg)" stroke="#7D8590" stroke-width="1.2"/>
  <rect x="-3" y="-64.0" width="6" height="52.0" rx="3" fill="#3FB950" opacity="0.18"/>
  <circle r="8.5" fill="#0B0E14" stroke="#3FB950" stroke-width="1.5"/><circle r="3" fill="#3FB950" opacity="0.75"/>
  <g transform="translate(0,-70.0)">
    <g>
      <animateTransform attributeName="transform" type="rotate" values="-86.46;-85.50;-54.54;-69.89;-62.88;-10.00;-38.68;-86.46" keyTimes="0;0.1628;0.26;0.42;0.5745;0.68;0.86;1" dur="4.6s" repeatCount="indefinite"/>
      <rect x="-6" y="-65.0" width="12" height="70.0" rx="6" fill="url(#armg)" stroke="#7D8590" stroke-width="1.1"/>
      <rect x="-2.4" y="-57.0" width="4.8" height="47.0" rx="2.4" fill="#3FB950" opacity="0.16"/>
      <circle r="7" fill="#0B0E14" stroke="#3FB950" stroke-width="1.4"/><circle r="2.4" fill="#3FB950" opacity="0.75"/>
      <g transform="translate(0,-62.0)">
        <g>
          <animateTransform attributeName="transform" type="rotate" values="94.86;110.98;74.75;33.14;-7.48;-23.17;15.03;94.86" keyTimes="0;0.1628;0.26;0.42;0.5745;0.68;0.86;1" dur="4.6s" repeatCount="indefinite"/>
          <circle r="5.5" fill="#0B0E14" stroke="#3FB950" stroke-width="1.3"/>
          <rect x="-7" y="2" width="14" height="6" rx="2.5" fill="url(#armg)" stroke="#7D8590" stroke-width="1"/>
          <g><animateTransform attributeName="transform" type="translate" values="-3.50,0;-0.00,0;-0.00,0;-0.00,0;-3.50,0;-3.50,0;-3.50,0;-3.50,0" keyTimes="0;0.1628;0.26;0.42;0.5745;0.68;0.86;1" dur="4.6s" repeatCount="indefinite"/>
            <path d="M-4,8 v7 h2.6" fill="none" stroke="#3FB950" stroke-width="2.2" stroke-linecap="round"/></g>
          <g><animateTransform attributeName="transform" type="translate" values="3.50,0;0.00,0;0.00,0;0.00,0;3.50,0;3.50,0;3.50,0;3.50,0" keyTimes="0;0.1628;0.26;0.42;0.5745;0.68;0.86;1" dur="4.6s" repeatCount="indefinite"/>
            <path d="M4,8 v7 h-2.6" fill="none" stroke="#3FB950" stroke-width="2.2" stroke-linecap="round"/></g>
          <g transform="translate(0,18.0)" opacity="0">
            <animate attributeName="opacity" values="0;0;1;1;0;0" keyTimes="0;0.1628;0.1688;0.5745;0.5805;1" dur="4.6s" repeatCount="indefinite"/>
            <g><rect x="-13.0" y="-10.0" width="26" height="20" rx="2.5" fill="#10243a" stroke="#58A6FF" stroke-width="1.3"/><path d="M-13.0,-3.1999999999999993 h26" stroke="#58A6FF" stroke-width="0.8" opacity="0.55"/><path d="M0.0,-10.0 v20" stroke="#58A6FF" stroke-width="0.7" opacity="0.3"/><rect x="-9.5" y="-7.0" width="8.84" height="2.4" rx="1.2" fill="#58A6FF" opacity="0.7"/><path d="M-13.0,10.0 l2.5,-2.5 h21 l2.5,2.5" fill="#000" opacity="0.25"/></g></g>
        </g>
      </g>
    </g>
  </g>
</g></g><g><animateMotion path="M852,96 H505 V178 H34 V207 H20 V46 H852 V96" dur="13.799999999999999s" begin="-10.521s" calcMode="linear" keyPoints="0;0;0.4678;0.4678;1" keyTimes="0;0.0100;0.4933;0.5103;1" repeatCount="indefinite"/><line x1="-12" y1="-7" x2="12" y2="7" stroke="#21262D" stroke-width="3.4"/><line x1="-12" y1="7" x2="12" y2="-7" stroke="#21262D" stroke-width="3.4"/><g transform="translate(-12,-7)"><animateTransform attributeName="transform" type="rotate" from="0" to="360" dur="0.19s" repeatCount="indefinite" additive="sum"/><ellipse rx="8" ry="1.9" fill="#58A6FF" opacity="0.8"/><ellipse rx="8" ry="1.9" fill="#58A6FF" opacity="0.25" transform="rotate(60)"/></g><g transform="translate(12,-7)"><animateTransform attributeName="transform" type="rotate" from="0" to="360" dur="0.19s" repeatCount="indefinite" additive="sum"/><ellipse rx="8" ry="1.9" fill="#58A6FF" opacity="0.8"/><ellipse rx="8" ry="1.9" fill="#58A6FF" opacity="0.25" transform="rotate(60)"/></g><g transform="translate(-12,7)"><animateTransform attributeName="transform" type="rotate" from="0" to="360" dur="0.19s" repeatCount="indefinite" additive="sum"/><ellipse rx="8" ry="1.9" fill="#58A6FF" opacity="0.8"/><ellipse rx="8" ry="1.9" fill="#58A6FF" opacity="0.25" transform="rotate(60)"/></g><g transform="translate(12,7)"><animateTransform attributeName="transform" type="rotate" from="0" to="360" dur="0.19s" repeatCount="indefinite" additive="sum"/><ellipse rx="8" ry="1.9" fill="#58A6FF" opacity="0.8"/><ellipse rx="8" ry="1.9" fill="#58A6FF" opacity="0.25" transform="rotate(60)"/></g><rect x="-9" y="-6" width="18" height="12" rx="4" fill="url(#armg)" stroke="#58A6FF" stroke-width="1.3"/><rect x="-4" y="5" width="8" height="4" rx="1.6" fill="#0B0E14" stroke="#58A6FF" stroke-width="0.9"/><circle cy="7" r="1.5" fill="#58A6FF" opacity="0.9"/><path d="M-13,9 h5 M8,9 h5" stroke="#7D8590" stroke-width="1.4" stroke-linecap="round"/><circle cx="-12" cy="-7" r="1.6" fill="#3FB950"><animate attributeName="opacity" values="1;0.15;1" dur="0.9s" begin="0.0s" repeatCount="indefinite"/></circle><circle cx="12" cy="-7" r="1.6" fill="#FF5F56"><animate attributeName="opacity" values="0.15;1;0.15" dur="0.9s" begin="0.0s" repeatCount="indefinite"/></circle><g opacity="0"><animate attributeName="opacity" values="0;0;1;1;0;0" keyTimes="0;0.0050;0.0100;0.4933;0.4983;1" dur="13.799999999999999s" begin="-10.521s" repeatCount="indefinite"/><line x1="0" y1="9" x2="0" y2="10.0" stroke="#7D8590" stroke-width="1.1"/><g transform="translate(0,20)"><g><rect x="-13.0" y="-10.0" width="26" height="20" rx="2.5" fill="#10243a" stroke="#58A6FF" stroke-width="1.3"/><path d="M-13.0,-3.1999999999999993 h26" stroke="#58A6FF" stroke-width="0.8" opacity="0.55"/><path d="M0.0,-10.0 v20" stroke="#58A6FF" stroke-width="0.7" opacity="0.3"/><rect x="-9.5" y="-7.0" width="8.84" height="2.4" rx="1.2" fill="#58A6FF" opacity="0.7"/><path d="M-13.0,10.0 l2.5,-2.5 h21 l2.5,2.5" fill="#000" opacity="0.25"/></g></g></g></g><g><animateMotion path="M852,96 H505 V178 H34 V207 H20 V46 H852 V96" dur="13.799999999999999s" begin="-5.921s" calcMode="linear" keyPoints="0;0;0.4678;0.4678;1" keyTimes="0;0.0100;0.4933;0.5103;1" repeatCount="indefinite"/><line x1="-12" y1="-7" x2="12" y2="7" stroke="#21262D" stroke-width="3.4"/><line x1="-12" y1="7" x2="12" y2="-7" stroke="#21262D" stroke-width="3.4"/><g transform="translate(-12,-7)"><animateTransform attributeName="transform" type="rotate" from="0" to="360" dur="0.19s" repeatCount="indefinite" additive="sum"/><ellipse rx="8" ry="1.9" fill="#58A6FF" opacity="0.8"/><ellipse rx="8" ry="1.9" fill="#58A6FF" opacity="0.25" transform="rotate(60)"/></g><g transform="translate(12,-7)"><animateTransform attributeName="transform" type="rotate" from="0" to="360" dur="0.19s" repeatCount="indefinite" additive="sum"/><ellipse rx="8" ry="1.9" fill="#58A6FF" opacity="0.8"/><ellipse rx="8" ry="1.9" fill="#58A6FF" opacity="0.25" transform="rotate(60)"/></g><g transform="translate(-12,7)"><animateTransform attributeName="transform" type="rotate" from="0" to="360" dur="0.19s" repeatCount="indefinite" additive="sum"/><ellipse rx="8" ry="1.9" fill="#58A6FF" opacity="0.8"/><ellipse rx="8" ry="1.9" fill="#58A6FF" opacity="0.25" transform="rotate(60)"/></g><g transform="translate(12,7)"><animateTransform attributeName="transform" type="rotate" from="0" to="360" dur="0.19s" repeatCount="indefinite" additive="sum"/><ellipse rx="8" ry="1.9" fill="#58A6FF" opacity="0.8"/><ellipse rx="8" ry="1.9" fill="#58A6FF" opacity="0.25" transform="rotate(60)"/></g><rect x="-9" y="-6" width="18" height="12" rx="4" fill="url(#armg)" stroke="#58A6FF" stroke-width="1.3"/><rect x="-4" y="5" width="8" height="4" rx="1.6" fill="#0B0E14" stroke="#58A6FF" stroke-width="0.9"/><circle cy="7" r="1.5" fill="#58A6FF" opacity="0.9"/><path d="M-13,9 h5 M8,9 h5" stroke="#7D8590" stroke-width="1.4" stroke-linecap="round"/><circle cx="-12" cy="-7" r="1.6" fill="#3FB950"><animate attributeName="opacity" values="1;0.15;1" dur="0.9s" begin="-0.3s" repeatCount="indefinite"/></circle><circle cx="12" cy="-7" r="1.6" fill="#FF5F56"><animate attributeName="opacity" values="0.15;1;0.15" dur="0.9s" begin="-0.3s" repeatCount="indefinite"/></circle><g opacity="0"><animate attributeName="opacity" values="0;0;1;1;0;0" keyTimes="0;0.0050;0.0100;0.4933;0.4983;1" dur="13.799999999999999s" begin="-5.921s" repeatCount="indefinite"/><line x1="0" y1="9" x2="0" y2="10.0" stroke="#7D8590" stroke-width="1.1"/><g transform="translate(0,20)"><g><rect x="-13.0" y="-10.0" width="26" height="20" rx="2.5" fill="#10243a" stroke="#58A6FF" stroke-width="1.3"/><path d="M-13.0,-3.1999999999999993 h26" stroke="#58A6FF" stroke-width="0.8" opacity="0.55"/><path d="M0.0,-10.0 v20" stroke="#58A6FF" stroke-width="0.7" opacity="0.3"/><rect x="-9.5" y="-7.0" width="8.84" height="2.4" rx="1.2" fill="#58A6FF" opacity="0.7"/><path d="M-13.0,10.0 l2.5,-2.5 h21 l2.5,2.5" fill="#000" opacity="0.25"/></g></g></g></g><g><animateMotion path="M852,96 H505 V178 H34 V207 H20 V46 H852 V96" dur="13.799999999999999s" begin="-1.321s" calcMode="linear" keyPoints="0;0;0.4678;0.4678;1" keyTimes="0;0.0100;0.4933;0.5103;1" repeatCount="indefinite"/><line x1="-12" y1="-7" x2="12" y2="7" stroke="#21262D" stroke-width="3.4"/><line x1="-12" y1="7" x2="12" y2="-7" stroke="#21262D" stroke-width="3.4"/><g transform="translate(-12,-7)"><animateTransform attributeName="transform" type="rotate" from="0" to="360" dur="0.19s" repeatCount="indefinite" additive="sum"/><ellipse rx="8" ry="1.9" fill="#58A6FF" opacity="0.8"/><ellipse rx="8" ry="1.9" fill="#58A6FF" opacity="0.25" transform="rotate(60)"/></g><g transform="translate(12,-7)"><animateTransform attributeName="transform" type="rotate" from="0" to="360" dur="0.19s" repeatCount="indefinite" additive="sum"/><ellipse rx="8" ry="1.9" fill="#58A6FF" opacity="0.8"/><ellipse rx="8" ry="1.9" fill="#58A6FF" opacity="0.25" transform="rotate(60)"/></g><g transform="translate(-12,7)"><animateTransform attributeName="transform" type="rotate" from="0" to="360" dur="0.19s" repeatCount="indefinite" additive="sum"/><ellipse rx="8" ry="1.9" fill="#58A6FF" opacity="0.8"/><ellipse rx="8" ry="1.9" fill="#58A6FF" opacity="0.25" transform="rotate(60)"/></g><g transform="translate(12,7)"><animateTransform attributeName="transform" type="rotate" from="0" to="360" dur="0.19s" repeatCount="indefinite" additive="sum"/><ellipse rx="8" ry="1.9" fill="#58A6FF" opacity="0.8"/><ellipse rx="8" ry="1.9" fill="#58A6FF" opacity="0.25" transform="rotate(60)"/></g><rect x="-9" y="-6" width="18" height="12" rx="4" fill="url(#armg)" stroke="#58A6FF" stroke-width="1.3"/><rect x="-4" y="5" width="8" height="4" rx="1.6" fill="#0B0E14" stroke="#58A6FF" stroke-width="0.9"/><circle cy="7" r="1.5" fill="#58A6FF" opacity="0.9"/><path d="M-13,9 h5 M8,9 h5" stroke="#7D8590" stroke-width="1.4" stroke-linecap="round"/><circle cx="-12" cy="-7" r="1.6" fill="#3FB950"><animate attributeName="opacity" values="1;0.15;1" dur="0.9s" begin="-0.6s" repeatCount="indefinite"/></circle><circle cx="12" cy="-7" r="1.6" fill="#FF5F56"><animate attributeName="opacity" values="0.15;1;0.15" dur="0.9s" begin="-0.6s" repeatCount="indefinite"/></circle><g opacity="0"><animate attributeName="opacity" values="0;0;1;1;0;0" keyTimes="0;0.0050;0.0100;0.4933;0.4983;1" dur="13.799999999999999s" begin="-1.321s" repeatCount="indefinite"/><line x1="0" y1="9" x2="0" y2="10.0" stroke="#7D8590" stroke-width="1.1"/><g transform="translate(0,20)"><g><rect x="-13.0" y="-10.0" width="26" height="20" rx="2.5" fill="#10243a" stroke="#58A6FF" stroke-width="1.3"/><path d="M-13.0,-3.1999999999999993 h26" stroke="#58A6FF" stroke-width="0.8" opacity="0.55"/><path d="M0.0,-10.0 v20" stroke="#58A6FF" stroke-width="0.7" opacity="0.3"/><rect x="-9.5" y="-7.0" width="8.84" height="2.4" rx="1.2" fill="#58A6FF" opacity="0.7"/><path d="M-13.0,10.0 l2.5,-2.5 h21 l2.5,2.5" fill="#000" opacity="0.25"/></g></g></g></g><g transform="translate(545,134)"><rect width="146" height="36" rx="7" fill="#111823" stroke="#30363D" stroke-width="1" opacity="0.92"/><circle cx="14" cy="14" r="3.2" fill="#3FB950"><animate attributeName="opacity" values="1;0.2;1" dur="1.6s" repeatCount="indefinite"/></circle><text x="25" y="17" class="mono" font-size="7.5" font-weight="700" fill="#E6EDF3">CELL 01 · LOOP ACTIVE</text><text x="14" y="29" class="mono" font-size="6.5" fill="#8B949E">AUTONOMOUS MATERIAL HANDLING</text></g></g><g transform="translate(35, 90)"><text x="0" y="0" font-size="38" font-weight="900" letter-spacing="2" fill="url(#tg)" filter="url(#glow)">ADYANSH GUPTA</text><text x="0" y="24" class="mono" font-size="12" font-weight="600" fill="#94A3B8" letter-spacing="2">ROBOTICS ENGINEER · PERCEPTION · NAVIGATION · AI</text></g><g transform="translate(35, 150)"><text y="0" font-size="15" font-weight="700" fill="#3FB950" opacity="0">🤖 Perception · Navigation · AI for embodied robots<animate attributeName="opacity" values="0;1;1;0;0" keyTimes="0;0.02;0.22;0.25;1" dur="16s" repeatCount="indefinite"/></text><text y="0" font-size="15" font-weight="700" fill="#58A6FF" opacity="0">🎓 M.Sc. Robotic Systems Engineering @ RWTH Aachen<animate attributeName="opacity" values="0;0;1;1;0;0" keyTimes="0;0.25;0.27;0.47;0.5;1" dur="16s" repeatCount="indefinite"/></text><text y="0" font-size="15" font-weight="700" fill="#A371F7" opacity="0">⚡ C++ · SIMD / SIMT · CUDA · ROS 2 · Nav2<animate attributeName="opacity" values="0;0;1;1;0;0" keyTimes="0;0.5;0.52;0.72;0.75;1" dur="16s" repeatCount="indefinite"/></text><text y="0" font-size="15" font-weight="700" fill="#D29922" opacity="0">🦿 Humanoids · Quadrupeds · AMRs · Drones<animate attributeName="opacity" values="0;0;1;1;1" keyTimes="0;0.75;0.77;0.97;1" dur="16s" repeatCount="indefinite"/></text><g transform="translate(2, 16)"><circle cx="0" cy="0" r="3" fill="#3FB950" opacity="0.25"><animate attributeName="opacity" values="1;1;0.25;0.25" keyTimes="0;0.25;0.26;1" dur="16s" repeatCount="indefinite"/></circle><circle cx="14" cy="0" r="3" fill="#58A6FF" opacity="0.25"><animate attributeName="opacity" values="0.25;0.25;1;1;0.25;0.25" keyTimes="0;0.25;0.26;0.5;0.51;1" dur="16s" repeatCount="indefinite"/></circle><circle cx="28" cy="0" r="3" fill="#A371F7" opacity="0.25"><animate attributeName="opacity" values="0.25;0.25;1;1;0.25;0.25" keyTimes="0;0.5;0.51;0.75;0.76;1" dur="16s" repeatCount="indefinite"/></circle><circle cx="42" cy="0" r="3" fill="#D29922" opacity="0.25"><animate attributeName="opacity" values="0.25;0.25;1;1" keyTimes="0;0.75;0.76;1" dur="16s" repeatCount="indefinite"/></circle></g></g></svg>